# xmcd CD database file
#
# Track frame offsets:
#	150
#	24290
#	61060
#	103003
#	152765
#	186528
#
# Disc length: 2832 seconds
#
# Revision: 0
# Processed by: cddbd v1.4PL0 Copyright (c) Steve Scherf et al.
# Submitted via: Feurio! 1.65 - http://www.feurio.com
#
DISCID=450b0e06
DTITLE=Canned Heat - Canned Heat
DYEAR=1900
DGENRE=Blues
TTITLE0=I'd Rather Be A Devil
TTITLE1=Wish You Would
TTITLE2=When Things Go Wrong
TTITLE3=Sweet Sixteen
TTITLE4=Bull Frog Blues
TTITLE5=Dust My Broom
EXTD=Interphon IPCD 2005
EXTT0=
EXTT1=
EXTT2=
EXTT3=
EXTT4=
EXTT5=
PLAYORDER=
